<?xml version="1.0" encoding="UTF-8"?>
<svg width="72" height="36" xmlns="http://www.w3.org/2000/svg" xmlns:xlink="http://www.w3.org/1999/xlink">
  <defs>
    <path id="a" d="M0 0h72v36H0z"/>
  </defs>
  <g fill="none" fill-rule="evenodd">
    <mask id="b" fill="#fff">
      <use xlink:href="#a"/>
    </mask>
    <path d="M72 18V3.088c-3.976-4.118-10.423-4.118-14.4 0l-7.2 7.456-7.2-7.456c-3.976-4.118-10.423-4.118-14.4 0l-7.2 7.456-7.2-7.456C10.424-1.03 3.977-1.03 0 3.088V18c3.678 3.808 3.678 3.808 0 0l14.4 14.912c3.977 4.118 10.424 4.118 14.4 0l7.2-7.456 7.2 7.456c3.977 4.118 10.424 4.118 14.4 0L72 18c-3.298 3.415-3.298 3.414 0 0" fill="#38EF7D" mask="url(#b)"/>
    <path d="M57.554 17.959c-3.908-4.098-10.42-4.026-14.354.048L36 25.462l7.2 7.456a9.965 9.965 0 0014.4 0L72 18.007c-3.992 4.133-10.473 4.117-14.446-.048" fill-opacity=".2" fill="#000"/>
    <path d="M28.8 3.095L14.4 18.006c-3.976 4.118-10.423 4.118-14.4 0l14.4 14.912a9.965 9.965 0 0014.4 0l14.4-14.912c3.977-4.117 10.424-4.117 14.4 0l-7.2-7.456-7.2-7.455a9.966 9.966 0 00-14.4 0" fill-opacity=".1" fill="#000"/>
  </g>
</svg>
